<?xml version="1.0" encoding="UTF-8"?><svg id="Layer_2" xmlns="http://www.w3.org/2000/svg" viewBox="0 0 1921 1133"><defs><style>.cls-1,.cls-2,.cls-3,.cls-4{fill:none;}.cls-2,.cls-3,.cls-4{stroke:#7001ff;stroke-miterlimit:10;}.cls-2,.cls-4{stroke-width:2px;}.cls-4{stroke-dasharray:0 0 11.89 11.89;}</style></defs><g id="Main"><rect class="cls-3" x="1673" y="178.5" width="101" height="101" transform="translate(342.87 1285.77) rotate(-45)"/><circle class="cls-3" cx="1618.5" cy="124" r="55.5"/><polyline class="cls-3" points="736.5 68.5 93 68.5 93 311"/><g><line class="cls-2" x1="94.5" y1="895" x2="94.5" y2="901"/><line class="cls-4" x1="94.5" y1="912.89" x2="94.5" y2="1121.05"/><line class="cls-2" x1="94.5" y1="1127" x2="94.5" y2="1133"/></g><path class="cls-3" d="M71.44,585.76c61.86,9.48,108.29-5.29,174.76,9.86,17.96,4.09,33.45,9.79,46.94,16.01,80.64,37.2,97.88,95.06,170.93,126.21,74.73,31.87,130.8,4.27,214.26-20.79,108.09-32.47,198.05-40.67,358.62-46.89,7.68-.27,15.37-.52,23.08-.88,166.91-7.78,226.76,16.69,424.35-7.34,29.23-3.56,62.05-7.84,99.35-13.63,125.81-19.55,240.67-55.96,336.78-93.19v-14.81c-93.11,36.14-211.05,72.82-345.08,89.39-37.32,4.61-70.11,7.48-99.43,9.51-188.96,13.06-248.18-22.54-423.29-13.03-7.67,.42-15.28,.78-22.86,1.2-159.55,9.15-254.22,32.61-355.32,65.88-80.34,26.44-138.35,50.05-212.31,17.34-73.61-32.56-93.87-91.26-171.85-125.2-13.73-5.98-29.4-11.16-47.54-14.71-69.62-13.62-114.61,5.71-175.54-4.93-5.76-1.02-11.62-2.37-17.65-3.95-18.05-4.73-34.38-10.95-49.14-18.23v22.6c15.94,6.3,33.65,11.79,53.22,16.14,6.03,1.34,11.91,2.54,17.72,3.45Z"/><path class="cls-3" d="M75.58,605.78c62.81,8.32,110.65-1.8,173.97,14.79,17.78,4.66,33.09,10.86,46.34,17.31,83.26,40.54,97.53,97.45,170.02,127.22,75.52,31.01,129.65-.5,216.22-24.25,115.1-31.59,200.31-24.93,361.91-27.9,7.79-.14,15.54-.26,23.3-.56,158.71-6.13,219.16,7.73,425.41-27.72,29.15-5.01,61.99-10.73,99.28-17.76,118.12-22.25,229.96-58.7,328.49-96.96v-14.85c-96.11,37.23-210.98,73.64-336.78,93.19-37.3,5.8-70.12,10.08-99.35,13.63-197.59,24.03-257.44-.43-424.35,7.34-7.71,.36-15.39,.61-23.08,.88-160.57,6.22-250.53,14.43-358.62,46.89-83.47,25.07-139.53,52.67-214.26,20.79-73.06-31.15-90.29-89.01-170.93-126.21-13.49-6.22-28.98-11.92-46.94-16.01-66.47-15.15-112.89-.38-174.76-9.86-5.81-.91-11.69-2.11-17.72-3.45-19.57-4.36-37.27-9.84-53.22-16.14v23.13c17.13,5.08,36.19,9.64,57.29,13.53,6.03,1.11,11.93,2.16,17.79,2.95Z"/><path class="cls-3" d="M83.87,645.82c64.68,6.13,115.33,5.46,172.41,24.66,17.42,5.86,32.34,13.04,45.14,19.91,88.38,47.44,96.85,102.18,168.18,129.24,77.11,29.25,127.4-9.89,220.13-31.17,129.18-29.64,204.87,7.16,368.49,10.07,8.01,.14,15.9,.26,23.73,.09,142.28-3.08,204.18-8.9,427.53-68.46,29-7.73,61.87-16.38,99.12-26,104.06-26.87,209.91-64.07,311.9-104.29v-14.98c-100.46,39.25-209.31,75.98-320.19,100.66-37.28,8.3-70.13,15.48-99.2,21.88-214.85,47.3-275.97,43.52-426.47,48.09-7.79,.24-15.61,.27-23.51,.23-162.6-.64-243.06-21.73-365.2,8.92-89.65,22.5-141.86,57.85-218.17,27.71-71.92-28.41-83.26-84.28-169.1-128.23-13.03-6.67-28.13-13.36-45.74-18.61-60.19-17.94-109.46-12.44-173.19-19.73-5.91-.68-11.83-1.57-17.86-2.46-22.61-3.33-43.06-6.76-61.37-10.39v24.14c19.49,1.96,41.31,4.09,65.44,6.77,6.02,.67,11.97,1.4,17.93,1.96Z"/><path class="cls-3" d="M63.15,545.72c59.98,11.79,103.55-12,176.32,0,18.31,3.02,34.16,7.7,48.13,13.41,75.31,30.78,98.66,90.13,172.77,124.19,73.24,33.45,133.17,14,210.36-13.88,94.17-34.01,193.51-72.78,352.03-84.87,7.46-.56,15.01-1.05,22.64-1.52,183.29-11.33,241.77,35.92,422.23,33.4,29.39-.41,62.17-1.92,99.51-5.39,142.9-13.26,263.97-50.62,353.37-85.55v-14.79c-84.78,33.54-209.08,72.13-361.67,81.73-256.01,16.09-296.56-68-520.75-52.5-307.99,21.29-417.67,192.87-579.56,116.11-89.33-42.35-109.55-120-222.41-135.3-83.2-11.27-125.84,23.65-194.61,0-14.99-5.16-28.61-12.2-40.99-20.62v21.41c13.57,7.99,28.54,14.73,45.07,19.73,6.03,1.82,11.87,3.31,17.58,4.44Z"/><path class="cls-3" d="M67.29,565.74c60.92,10.64,105.92-8.69,175.54,4.93,18.13,3.55,33.81,8.73,47.54,14.71,77.98,33.95,98.24,92.65,171.85,125.2,73.96,32.71,131.97,9.1,212.31-17.34,101.11-33.27,195.78-56.73,355.32-65.88,7.57-.41,15.19-.78,22.86-1.2,175.1-9.51,234.32,26.09,423.29,13.03,29.32-2.03,62.11-4.9,99.43-9.51,134.03-16.57,251.97-53.25,345.08-89.39v-14.79c-89.4,34.93-210.47,72.3-353.37,85.55-37.34,3.46-70.12,4.98-99.51,5.39-180.45,2.52-238.94-44.73-422.23-33.4-7.63,.47-15.17,.96-22.64,1.52-158.53,12.09-257.87,50.86-352.03,84.87-77.18,27.87-137.12,47.32-210.36,13.88-74.11-34.06-97.46-93.42-172.77-124.19-13.98-5.71-29.82-10.39-48.13-13.41-72.77-12-116.34,11.8-176.32,0-5.71-1.13-11.55-2.62-17.58-4.44-16.52-5-31.5-11.74-45.07-19.73v22.02c14.76,7.28,31.09,13.5,49.14,18.23,6.03,1.58,11.89,2.92,17.65,3.95Z"/><path class="cls-3" d="M79.72,625.8c63.73,7.29,113,1.79,173.19,19.73,17.61,5.25,32.71,11.94,45.74,18.61,85.84,43.95,97.19,99.83,169.1,128.23,76.31,30.14,128.52-5.22,218.17-27.71,122.13-30.65,202.59-9.56,365.2-8.92,7.9,.03,15.72,0,23.51-.23,150.5-4.56,211.61-.79,426.47-48.09,29.07-6.4,61.92-13.58,99.2-21.88,110.88-24.68,219.73-61.41,320.19-100.66v-14.92c-98.53,38.26-210.37,74.71-328.49,96.96-37.29,7.02-70.13,12.75-99.28,17.76-206.25,35.45-266.7,21.59-425.41,27.72-7.75,.3-15.5,.41-23.3,.56-161.59,2.97-246.81-3.68-361.91,27.9-86.57,23.76-140.7,55.27-216.22,24.25-72.49-29.77-86.76-86.69-170.02-127.22-13.25-6.45-28.55-12.65-46.34-17.31-63.32-16.59-111.17-6.47-173.97-14.79-5.86-.8-11.76-1.84-17.79-2.95-21.1-3.89-40.16-8.45-57.29-13.53v23.66c18.31,3.63,38.76,7.06,61.37,10.39,6.02,.89,11.95,1.78,17.86,2.46Z"/><path class="cls-3" d="M88.01,665.84c65.63,4.84,117.62,9.23,171.63,29.59,17.23,6.5,31.95,14.14,44.54,21.21,90.87,51.01,96.53,104.52,167.27,130.25,77.92,28.34,126.29-14.53,222.08-34.63,136.24-28.58,207.14,23.54,371.78,29.06,8.12,.3,16.08,.51,23.95,.41,134.07-1.68,196.92-16.63,428.59-88.83,28.96-9.02,61.83-19.13,99.04-30.12,97.61-28.83,200.47-66.65,303.6-107.83v-15.08c-101.98,40.22-207.83,77.43-311.9,104.29-37.25,9.62-70.12,18.27-99.12,26-223.34,59.56-285.25,65.38-427.53,68.46-7.83,.17-15.72,.06-23.73-.09-163.62-2.91-239.31-39.71-368.49-10.07-92.73,21.28-143.02,60.42-220.13,31.17-71.33-27.06-79.8-81.8-168.18-129.24-12.81-6.87-27.72-14.05-45.14-19.91-57.08-19.19-107.74-18.53-172.41-24.66-5.95-.56-11.91-1.3-17.93-1.96-24.13-2.68-45.95-4.8-65.44-6.77v24.61c20.67,.09,43.87,.74,69.51,2.67,6.01,.45,12,1,17.99,1.47Z"/><path class="cls-3" d="M100.44,725.9c68.45,1.37,124.21,20.98,169.28,44.39,16.54,8.59,30.76,17.5,42.75,25.11,97.99,62.15,95.61,111.34,164.52,133.28,80.43,25.37,122.99-28.09,227.95-45.01,157.49-24.84,213.95,71.7,381.66,86.02,8.45,.73,16.62,1.22,24.61,1.37,109.43,2.06,176.44-37.88,431.77-149.94,28.97-12.72,61.9-27.02,98.81-42.49,80.25-33.62,174.05-73.79,278.71-117.82v-15.4c-104.45,43.09-201.28,82.41-287.01,114.6-37.06,13.92-69.95,26.86-98.89,38.37-247.68,98.49-313.07,130.46-430.71,129.57-7.96-.06-16.05-.46-24.39-1.05-166.69-11.39-227.99-93.34-378.36-67.03-101.92,17.83-146.43,68-225.99,41.55-69.54-23.12-69.75-73.91-165.44-132.27-12.18-7.43-26.55-15.94-43.35-23.81-47.99-22.46-102.55-36.93-170.07-39.46-6.09-.24-12.14-.35-18.13-.48-28.65-.63-54.63,2.03-77.66,6.22v26.47c24.21-6.61,51.59-11.38,81.74-12.18,5.99-.16,12.06-.15,18.2-.02Z"/><path class="cls-3" d="M315.23,821.65c100.24,66.01,95.28,113.7,163.6,134.29,81.23,24.48,121.84-32.8,229.9-48.47,164.51-23.85,216.22,87.75,384.95,105.01,116.36,11.9,174.08-32.76,457.66-168.62,88.36-42.33,213.36-100.57,369.15-167.53v-15.53c-104.66,44.03-198.47,84.2-278.71,117.82-36.92,15.47-69.84,29.78-98.81,42.49-255.33,112.06-322.34,152-431.77,149.94-8-.15-16.16-.64-24.61-1.37-167.71-14.32-224.17-110.86-381.66-86.02-104.96,16.92-147.52,70.38-227.95,45.01-68.9-21.94-66.53-71.13-164.52-133.28-11.99-7.6-26.2-16.51-42.75-25.11-45.08-23.41-100.83-43.02-169.28-44.39-6.14-.13-12.21-.14-18.2,.02-30.15,.8-57.53,5.57-81.74,12.18v26.23c30.2-10.9,65.21-18.53,104.08-18.41,96.11,.29,168.2,47.77,210.65,75.73Z"/><path class="cls-3" d="M74.09,684.89c6,.24,12.02,.62,18.06,.97,66.57,3.69,119.87,13.07,170.85,34.52,17.02,7.17,31.56,15.25,43.95,22.51,93.31,54.65,96.21,106.84,166.35,131.26,78.74,27.41,125.18-19.14,224.04-38.09,143.31-27.47,209.41,39.59,375.07,48.05,8.23,.45,16.26,.87,24.17,.73,125.83-2.29,189.86-24.01,429.65-109.2,28.94-10.28,61.82-21.82,98.97-34.25,91.51-30.6,191.36-69.13,295.31-111.27v-15.17c-103.13,41.18-205.99,79-303.6,107.83-37.21,10.99-70.09,21.1-99.04,30.12-231.67,72.2-294.52,87.15-428.59,88.83-7.87,.1-15.83-.11-23.95-.41-164.65-5.52-235.54-57.64-371.78-29.06-95.8,20.1-144.16,62.97-222.08,34.63-70.74-25.73-76.39-79.24-167.27-130.25-12.59-7.07-27.31-14.71-44.54-21.21-54.01-20.36-106-24.75-171.63-29.59-6-.46-11.99-1.01-17.99-1.47-25.65-1.93-48.85-2.58-69.51-2.67v25.05c21.84-1.97,46.44-2.96,73.59-1.86Z"/><path class="cls-3" d="M78.16,705.41c5.99,.13,12.04,.24,18.13,.48,67.51,2.53,122.07,16.99,170.07,39.46,16.8,7.86,31.16,16.38,43.35,23.81,95.68,58.36,95.89,109.15,165.44,132.27,79.56,26.45,124.07-23.72,225.99-41.55,150.37-26.31,211.68,55.64,378.36,67.03,8.34,.59,16.44,.99,24.39,1.05,117.64,.89,183.03-31.08,430.71-129.57,28.94-11.51,61.83-24.45,98.89-38.37,85.72-32.19,182.56-71.51,287.01-114.6v-15.29c-103.94,42.14-203.8,80.67-295.31,111.27-37.15,12.42-70.03,23.97-98.97,34.25-239.79,85.19-303.82,106.91-429.65,109.2-7.91,.14-15.94-.28-24.17-.73-165.67-8.45-231.77-75.51-375.07-48.05-98.86,18.95-145.3,65.5-224.04,38.09-70.15-24.42-73.04-76.61-166.35-131.26-12.38-7.25-26.92-15.34-43.95-22.51-50.97-21.45-104.28-30.84-170.85-34.52-6.05-.35-12.06-.73-18.06-.97-27.15-1.1-51.74-.11-73.59,1.86v24.88c23.03-4.2,49.01-6.85,77.66-6.22Z"/><rect class="cls-1" x=".5" width="1920" height="1080"/></g></svg>